<svg width="27" height="27" viewBox="0 0 27 27" fill="none" xmlns="http://www.w3.org/2000/svg">
<path d="M1 8.0185C1 7.01663 1 6.51568 1.14303 6.0433C1.28605 5.57092 1.56392 5.15412 2.11967 4.3205L2.35422 3.96867C3.32303 2.51545 3.80745 1.78883 4.54442 1.39442C5.2814 1 6.15467 1 7.90123 1H19.0988C20.8453 1 21.7187 1 22.4555 1.39442C23.1925 1.78883 23.677 2.51545 24.6458 3.96867L24.8803 4.3205L24.882 4.32302C24.9167 4.375 24.9503 4.42542 24.9828 4.47427C25.4707 5.20723 25.7231 5.60089 25.857 6.0433C26 6.51568 26 7.01663 26 8.0185M1 8.0185V19.3333M1 8.0185V9.33333M26 8.0185V19.3333M26 8.0185V9.33333M26 19.3333C26 22.476 26 24.0473 25.0237 25.0237C24.0473 26 22.476 26 19.3333 26H7.66667C4.52397 26 2.95262 26 1.97632 25.0237C1 24.0473 1 22.476 1 19.3333M26 19.3333V9.33333M1 19.3333V9.33333M1 9.33333H26M1 9.33333H9.58333M26 9.33333H17.4167M9.58333 9.33333C9.44527 9.33333 9.33333 9.44527 9.33333 9.58333V16.342C9.33333 16.925 9.96932 17.285 10.4692 16.9852L13.2857 15.2953C13.4175 15.2162 13.5825 15.2162 13.7143 15.2953L16.5308 16.9852C17.0307 17.285 17.6667 16.925 17.6667 16.342V9.58333C17.6667 9.44527 17.5547 9.33333 17.4167 9.33333M9.58333 9.33333H17.4167" stroke="#B11F42" stroke-width="2"/>
</svg>
